<svg id="Calque_1" data-name="Calque 1" xmlns="http://www.w3.org/2000/svg" viewBox="0 0 34 14"><defs><style>.cls-1{fill:#c4c4c4;}</style></defs><path class="cls-1" d="M5.08,13.18a4.84,4.84,0,0,1-3.65-1.3A5.3,5.3,0,0,1,.1,8.3c0-.32,0-.85,0-1.58s0-1.29,0-1.62A5.28,5.28,0,0,1,1.43,1.53,4.85,4.85,0,0,1,5.08.22,5.79,5.79,0,0,1,7.8.8,4,4,0,0,1,9.48,2.27a4.12,4.12,0,0,1,.63,2A.35.35,0,0,1,10,4.5a.4.4,0,0,1-.27.09h-.9a.44.44,0,0,1-.29-.09.6.6,0,0,1-.16-.3A3,3,0,0,0,7.24,2.25,3.67,3.67,0,0,0,5.08,1.7C3,1.7,1.91,2.86,1.83,5.19c0,.32,0,.82,0,1.49s0,1.18,0,1.53c.08,2.32,1.17,3.48,3.25,3.48a3.76,3.76,0,0,0,2.16-.56A3,3,0,0,0,8.36,9.2a.6.6,0,0,1,.16-.3.44.44,0,0,1,.29-.09h.9a.36.36,0,0,1,.27.1.32.32,0,0,1,.13.26A4.08,4.08,0,0,1,7.8,12.62,6,6,0,0,1,5.08,13.18Zm12,0a4.91,4.91,0,0,1-3.64-1.3,5,5,0,0,1-1.38-3.51c0-.36,0-.92,0-1.69s0-1.34,0-1.69a4.87,4.87,0,0,1,1.36-3.47A5,5,0,0,1,17.11.22,5.65,5.65,0,0,1,19.79.8a4.53,4.53,0,0,1,1.66,1.38A2.86,2.86,0,0,1,22,3.66v0a.33.33,0,0,1-.13.26.37.37,0,0,1-.25.09h-1A.39.39,0,0,1,20.4,4a.65.65,0,0,1-.14-.27A3,3,0,0,0,19.2,2.27a3.47,3.47,0,0,0-2.09-.57,3.31,3.31,0,0,0-2.38.82,3.63,3.63,0,0,0-.92,2.56c0,.35,0,.88,0,1.6s0,1.24,0,1.6a3.63,3.63,0,0,0,.92,2.58,3.31,3.31,0,0,0,2.38.83,3.55,3.55,0,0,0,2.45-.83,3.28,3.28,0,0,0,.91-2.52V7.56H17.72a.45.45,0,0,1-.31-.12.48.48,0,0,1-.1-.31V6.59a.44.44,0,0,1,.1-.3.42.42,0,0,1,.31-.13h4a.43.43,0,0,1,.43.43V8.3a5.29,5.29,0,0,1-.61,2.58,4.16,4.16,0,0,1-1.74,1.71A6,6,0,0,1,17.11,13.18Z"/><path class="cls-1" d="M28.6,13.18c-3.43,0-5.22-2.46-5.22-6.43V.22h1.56l0,6.55c0,3.43,1.31,4.92,3.68,4.92s3.54-1.53,3.54-4.95V.22H33.7V6.66C33.7,10.83,31.92,13.18,28.6,13.18Z"/></svg>