<svg id="Calque_1" data-name="Calque 1" xmlns="http://www.w3.org/2000/svg" viewBox="0 0 37 14"><defs><style>.cls-1{fill:#4eb798;}</style></defs><path class="cls-1" d="M6.69,13.18A4.84,4.84,0,0,1,3,11.88,5.3,5.3,0,0,1,1.71,8.3c0-.32,0-.85,0-1.58s0-1.29,0-1.62A5.28,5.28,0,0,1,3,1.53,4.85,4.85,0,0,1,6.69.22,5.79,5.79,0,0,1,9.41.8a4,4,0,0,1,1.68,1.47,4.12,4.12,0,0,1,.63,2,.35.35,0,0,1-.13.27.4.4,0,0,1-.27.09h-.9a.44.44,0,0,1-.29-.09A.6.6,0,0,1,10,4.2,3,3,0,0,0,8.85,2.25,3.67,3.67,0,0,0,6.69,1.7c-2.08,0-3.17,1.16-3.25,3.49,0,.32,0,.82,0,1.49s0,1.18,0,1.53c.08,2.32,1.17,3.48,3.25,3.48a3.76,3.76,0,0,0,2.16-.56A3,3,0,0,0,10,9.2a.6.6,0,0,1,.16-.3.44.44,0,0,1,.29-.09h.9a.36.36,0,0,1,.27.1.32.32,0,0,1,.13.26,4.08,4.08,0,0,1-2.31,3.45A6,6,0,0,1,6.69,13.18Zm12,0a4.91,4.91,0,0,1-3.64-1.3A5,5,0,0,1,13.7,8.37c0-.36,0-.92,0-1.69s0-1.34,0-1.69a4.87,4.87,0,0,1,1.37-3.47A4.94,4.94,0,0,1,18.72.22,5.62,5.62,0,0,1,21.4.8a4.45,4.45,0,0,1,1.66,1.38,2.86,2.86,0,0,1,.59,1.48v0a.35.35,0,0,1-.12.26.41.41,0,0,1-.26.09h-1A.4.4,0,0,1,22,4a.79.79,0,0,1-.14-.27,3,3,0,0,0-1.06-1.42,3.45,3.45,0,0,0-2.09-.57,3.31,3.31,0,0,0-2.38.82,3.58,3.58,0,0,0-.91,2.56c0,.35,0,.88,0,1.6s0,1.24,0,1.6a3.58,3.58,0,0,0,.91,2.58,3.31,3.31,0,0,0,2.38.83,3.53,3.53,0,0,0,2.45-.83,3.29,3.29,0,0,0,.92-2.52V7.56H19.33a.41.41,0,0,1-.3-.12.44.44,0,0,1-.11-.31V6.59a.4.4,0,0,1,.11-.3.38.38,0,0,1,.3-.13h4a.36.36,0,0,1,.31.13.38.38,0,0,1,.13.3V8.3a5.29,5.29,0,0,1-.62,2.58,4.1,4.1,0,0,1-1.74,1.71A6,6,0,0,1,18.72,13.18Z"/><path class="cls-1" d="M30.21,13.18c-3.43,0-5.22-2.46-5.22-6.43V.22h1.56l0,6.55c0,3.43,1.31,4.92,3.68,4.92s3.54-1.53,3.54-4.95V.22h1.56V6.66C35.31,10.83,33.53,13.18,30.21,13.18Z"/></svg>