<svg width="37" height="14" viewBox="0 0 37 14" fill="none" xmlns="http://www.w3.org/2000/svg">
<path d="M6.264 13.18C4.608 13.18 3.324 12.76 2.412 11.92C1.512 11.068 1.032 9.862 0.972 8.302C0.96 7.978 0.954 7.45 0.954 6.718C0.954 5.974 0.96 5.434 0.972 5.098C1.032 3.562 1.518 2.368 2.43 1.516C3.342 0.651999 4.62 0.219999 6.264 0.219999C7.332 0.219999 8.262 0.405999 9.054 0.778C9.846 1.138 10.458 1.636 10.89 2.272C11.334 2.908 11.568 3.622 11.592 4.414V4.45C11.592 4.546 11.55 4.63 11.466 4.702C11.394 4.762 11.31 4.792 11.214 4.792H9.468C9.324 4.792 9.216 4.762 9.144 4.702C9.072 4.63 9.012 4.51 8.964 4.342C8.784 3.598 8.472 3.076 8.028 2.776C7.584 2.464 6.996 2.308 6.264 2.308C4.548 2.308 3.654 3.268 3.582 5.188C3.57 5.512 3.564 6.01 3.564 6.682C3.564 7.354 3.57 7.864 3.582 8.212C3.654 10.132 4.548 11.092 6.264 11.092C6.984 11.092 7.566 10.942 8.01 10.642C8.466 10.33 8.784 9.802 8.964 9.058C9.012 8.89 9.072 8.776 9.144 8.716C9.216 8.644 9.324 8.608 9.468 8.608H11.214C11.322 8.608 11.412 8.644 11.484 8.716C11.568 8.788 11.604 8.878 11.592 8.986C11.568 9.778 11.334 10.492 10.89 11.128C10.458 11.764 9.846 12.268 9.054 12.64C8.262 13 7.332 13.18 6.264 13.18ZM18.6403 13.18C16.9843 13.18 15.6943 12.754 14.7703 11.902C13.8583 11.05 13.3723 9.862 13.3123 8.338C13.3003 7.99 13.2943 7.432 13.2943 6.664C13.2943 5.896 13.3003 5.338 13.3123 4.99C13.3603 3.502 13.8523 2.338 14.7883 1.498C15.7243 0.645999 17.0083 0.219999 18.6403 0.219999C19.7443 0.219999 20.6923 0.411999 21.4843 0.795999C22.2883 1.168 22.8943 1.636 23.3023 2.2C23.7103 2.752 23.9263 3.298 23.9503 3.838C23.9503 3.946 23.9143 4.036 23.8423 4.108C23.7703 4.18 23.6743 4.216 23.5543 4.216H21.6643C21.5443 4.216 21.4543 4.192 21.3943 4.144C21.3343 4.096 21.2803 4.018 21.2323 3.91C21.0643 3.466 20.7703 3.088 20.3503 2.776C19.9303 2.464 19.3603 2.308 18.6403 2.308C17.8003 2.308 17.1403 2.536 16.6603 2.992C16.1923 3.436 15.9463 4.132 15.9223 5.08C15.9103 5.428 15.9043 5.956 15.9043 6.664C15.9043 7.36 15.9103 7.888 15.9223 8.248C15.9463 9.22 16.1983 9.94 16.6783 10.408C17.1583 10.864 17.8183 11.092 18.6583 11.092C19.5103 11.092 20.1943 10.864 20.7103 10.408C21.2263 9.952 21.4843 9.268 21.4843 8.356V7.798H19.2883C19.1683 7.798 19.0663 7.756 18.9823 7.672C18.8983 7.588 18.8563 7.486 18.8563 7.366V6.376C18.8563 6.256 18.8983 6.154 18.9823 6.07C19.0663 5.986 19.1683 5.944 19.2883 5.944H23.6083C23.7403 5.944 23.8483 5.986 23.9323 6.07C24.0163 6.154 24.0583 6.256 24.0583 6.376V8.284C24.0583 9.28 23.8363 10.15 23.3923 10.894C22.9483 11.626 22.3183 12.19 21.5023 12.586C20.6863 12.982 19.7323 13.18 18.6403 13.18ZM29.5975 13C29.2375 13 29.0035 12.832 28.8955 12.496L25.0435 0.94C25.0315 0.903999 25.0255 0.849999 25.0255 0.778C25.0255 0.67 25.0615 0.58 25.1335 0.508C25.2055 0.435999 25.2955 0.399999 25.4035 0.399999H27.0055C27.1615 0.399999 27.2875 0.441999 27.3835 0.526C27.4795 0.609999 27.5455 0.699999 27.5815 0.795999L30.5875 10.012L33.6115 0.795999C33.6355 0.699999 33.6955 0.609999 33.7915 0.526C33.8875 0.441999 34.0135 0.399999 34.1695 0.399999H35.7895C35.8855 0.399999 35.9695 0.435999 36.0415 0.508C36.1255 0.58 36.1675 0.67 36.1675 0.778L36.1315 0.94L32.2975 12.496C32.1775 12.832 31.9435 13 31.5955 13H29.5975Z" fill="#4EB798"/>
</svg>
