<svg width="28" height="28" viewBox="0 0 28 28" fill="none" xmlns="http://www.w3.org/2000/svg">
<path d="M19.2096 0H8.73162C3.91002 0 0 3.91002 0 8.73162V19.2096C0 24.0312 3.91002 27.9412 8.73162 27.9412H19.2096C24.0312 27.9412 27.9412 24.0312 27.9412 19.2096V8.73162C27.9412 3.91002 24.0312 0 19.2096 0ZM25.3217 19.2096C25.3217 22.58 22.58 25.3217 19.2096 25.3217H8.73162C5.36121 25.3217 2.61949 22.58 2.61949 19.2096V8.73162C2.61949 5.36121 5.36121 2.61949 8.73162 2.61949H19.2096C22.58 2.61949 25.3217 5.36121 25.3217 8.73162V19.2096Z" fill="#C4C4C4"/>
<path d="M13.9706 6.98535C10.113 6.98535 6.98535 10.113 6.98535 13.9706C6.98535 17.8283 10.113 20.9559 13.9706 20.9559C17.8283 20.9559 20.9559 17.8283 20.9559 13.9706C20.9559 10.113 17.8283 6.98535 13.9706 6.98535ZM13.9706 18.3365C11.5642 18.3365 9.60484 16.3771 9.60484 13.9706C9.60484 11.5625 11.5642 9.60484 13.9706 9.60484C16.3771 9.60484 18.3365 11.5625 18.3365 13.9706C18.3365 16.3771 16.3771 18.3365 13.9706 18.3365Z" fill="#C4C4C4"/>
<path d="M21.4796 7.39234C21.9937 7.39234 22.4104 6.97561 22.4104 6.46155C22.4104 5.94749 21.9937 5.53076 21.4796 5.53076C20.9656 5.53076 20.5488 5.94749 20.5488 6.46155C20.5488 6.97561 20.9656 7.39234 21.4796 7.39234Z" fill="#C4C4C4"/>
</svg>
