<svg width="131" height="18" viewBox="0 0 131 18" fill="none" xmlns="http://www.w3.org/2000/svg">
<path d="M0.836 14C0.716 14 0.614 13.958 0.53 13.874C0.446 13.79 0.404 13.688 0.404 13.568V1.85C0.404 1.718 0.44 1.61 0.512 1.526C0.596 1.442 0.704 1.4 0.836 1.4H5.498C6.962 1.4 8.108 1.742 8.936 2.426C9.776 3.11 10.196 4.082 10.196 5.342C10.196 6.218 9.98 6.956 9.548 7.556C9.128 8.144 8.54 8.57 7.784 8.834L10.412 13.424C10.448 13.496 10.466 13.562 10.466 13.622C10.466 13.73 10.424 13.82 10.34 13.892C10.268 13.964 10.184 14 10.088 14H8.45C8.258 14 8.108 13.958 8 13.874C7.904 13.79 7.814 13.67 7.73 13.514L5.408 9.248H2.906V13.568C2.906 13.688 2.864 13.79 2.78 13.874C2.708 13.958 2.606 14 2.474 14H0.836ZM5.444 7.214C6.164 7.214 6.704 7.052 7.064 6.728C7.436 6.404 7.622 5.936 7.622 5.324C7.622 4.712 7.436 4.238 7.064 3.902C6.704 3.566 6.164 3.398 5.444 3.398H2.906V7.214H5.444ZM16.2259 14.18C14.8939 14.18 13.8319 13.796 13.0399 13.028C12.2599 12.248 11.8459 11.156 11.7979 9.752L11.7799 9.302L11.7979 8.852C11.8579 7.484 12.2779 6.41 13.0579 5.63C13.8499 4.85 14.9059 4.46 16.2259 4.46C17.6419 4.46 18.7339 4.892 19.5019 5.756C20.2819 6.62 20.6719 7.772 20.6719 9.212V9.59C20.6719 9.71 20.6299 9.812 20.5459 9.896C20.4619 9.98 20.3539 10.022 20.2219 10.022H14.2459V10.166C14.2699 10.826 14.4499 11.384 14.7859 11.84C15.1339 12.284 15.6079 12.506 16.2079 12.506C16.9159 12.506 17.4859 12.23 17.9179 11.678C18.0259 11.546 18.1099 11.462 18.1699 11.426C18.2419 11.39 18.3439 11.372 18.4759 11.372H20.0239C20.1319 11.372 20.2219 11.408 20.2939 11.48C20.3779 11.54 20.4199 11.618 20.4199 11.714C20.4199 12.002 20.2459 12.344 19.8979 12.74C19.5619 13.124 19.0759 13.46 18.4399 13.748C17.8039 14.036 17.0659 14.18 16.2259 14.18ZM18.2239 8.51V8.456C18.2239 7.748 18.0439 7.178 17.6839 6.746C17.3359 6.314 16.8499 6.098 16.2259 6.098C15.6019 6.098 15.1159 6.314 14.7679 6.746C14.4199 7.178 14.2459 7.748 14.2459 8.456V8.51H18.2239ZM23.1405 3.092C23.0205 3.092 22.9185 3.05 22.8345 2.966C22.7505 2.882 22.7085 2.78 22.7085 2.66V1.364C22.7085 1.244 22.7505 1.142 22.8345 1.058C22.9185 0.974 23.0205 0.932 23.1405 0.932H24.8325C24.9525 0.932 25.0545 0.974 25.1385 1.058C25.2345 1.142 25.2825 1.244 25.2825 1.364V2.66C25.2825 2.78 25.2405 2.882 25.1565 2.966C25.0725 3.05 24.9645 3.092 24.8325 3.092H23.1405ZM21.0345 17.42C20.9025 17.42 20.8005 17.378 20.7285 17.294C20.6445 17.222 20.6025 17.12 20.6025 16.988V15.962C20.6025 15.83 20.6445 15.722 20.7285 15.638C20.8125 15.554 20.9145 15.512 21.0345 15.512H21.5025C22.0065 15.512 22.3425 15.38 22.5105 15.116C22.6905 14.864 22.7805 14.486 22.7805 13.982V5.072C22.7805 4.94 22.8225 4.838 22.9065 4.766C22.9905 4.682 23.0925 4.64 23.2125 4.64H24.7785C24.8985 4.64 25.0005 4.682 25.0845 4.766C25.1685 4.85 25.2105 4.952 25.2105 5.072V14.018C25.2105 15.098 24.9165 15.932 24.3285 16.52C23.7525 17.12 22.8825 17.42 21.7185 17.42H21.0345ZM31.7499 14.18C30.3459 14.18 29.2599 13.82 28.4919 13.1C27.7239 12.368 27.3099 11.372 27.2499 10.112L27.2319 9.32L27.2499 8.528C27.3099 7.28 27.7299 6.29 28.5099 5.558C29.2899 4.826 30.3699 4.46 31.7499 4.46C33.1299 4.46 34.2099 4.826 34.9899 5.558C35.7699 6.29 36.1899 7.28 36.2499 8.528C36.2619 8.672 36.2679 8.936 36.2679 9.32C36.2679 9.704 36.2619 9.968 36.2499 10.112C36.1899 11.372 35.7759 12.368 35.0079 13.1C34.2399 13.82 33.1539 14.18 31.7499 14.18ZM31.7499 12.398C32.3859 12.398 32.8779 12.2 33.2259 11.804C33.5739 11.396 33.7659 10.802 33.8019 10.022C33.8139 9.902 33.8199 9.668 33.8199 9.32C33.8199 8.972 33.8139 8.738 33.8019 8.618C33.7659 7.838 33.5739 7.25 33.2259 6.854C32.8779 6.446 32.3859 6.242 31.7499 6.242C31.1139 6.242 30.6219 6.446 30.2739 6.854C29.9259 7.25 29.7339 7.838 29.6979 8.618L29.6799 9.32L29.6979 10.022C29.7339 10.802 29.9259 11.396 30.2739 11.804C30.6219 12.2 31.1139 12.398 31.7499 12.398ZM38.6222 3.092C38.5022 3.092 38.4002 3.05 38.3162 2.966C38.2322 2.882 38.1902 2.78 38.1902 2.66V1.364C38.1902 1.244 38.2322 1.142 38.3162 1.058C38.4002 0.974 38.5022 0.932 38.6222 0.932H40.2602C40.3802 0.932 40.4822 0.974 40.5662 1.058C40.6622 1.142 40.7102 1.244 40.7102 1.364V2.66C40.7102 2.78 40.6682 2.882 40.5842 2.966C40.5002 3.05 40.3922 3.092 40.2602 3.092H38.6222ZM38.6942 14C38.5742 14 38.4722 13.958 38.3882 13.874C38.3042 13.79 38.2622 13.688 38.2622 13.568V5.072C38.2622 4.952 38.3042 4.85 38.3882 4.766C38.4722 4.682 38.5742 4.64 38.6942 4.64H40.1882C40.3202 4.64 40.4222 4.682 40.4942 4.766C40.5782 4.838 40.6202 4.94 40.6202 5.072V13.568C40.6202 13.688 40.5782 13.79 40.4942 13.874C40.4222 13.958 40.3202 14 40.1882 14H38.6942ZM47.2383 17.96C46.1703 17.96 45.3063 17.78 44.6463 17.42C43.9863 17.072 43.5183 16.67 43.2423 16.214C42.9663 15.758 42.8283 15.368 42.8283 15.044C42.8283 14.936 42.8703 14.84 42.9543 14.756C43.0503 14.672 43.1523 14.63 43.2603 14.63H44.8263C44.9343 14.63 45.0243 14.654 45.0963 14.702C45.1803 14.762 45.2463 14.864 45.2943 15.008C45.4143 15.332 45.6063 15.602 45.8703 15.818C46.1463 16.046 46.5723 16.16 47.1483 16.16C47.8683 16.16 48.3963 15.998 48.7323 15.674C49.0803 15.35 49.2543 14.792 49.2543 14V12.776C48.5943 13.556 47.6703 13.946 46.4823 13.946C45.2343 13.946 44.2923 13.562 43.6563 12.794C43.0323 12.026 42.6963 10.994 42.6483 9.698L42.6303 9.212L42.6483 8.726C42.6963 7.454 43.0383 6.428 43.6743 5.648C44.3103 4.856 45.2463 4.46 46.4823 4.46C47.1183 4.46 47.6763 4.58 48.1563 4.82C48.6363 5.06 49.0383 5.39 49.3623 5.81V5.09C49.3623 4.958 49.4043 4.85 49.4883 4.766C49.5723 4.682 49.6743 4.64 49.7943 4.64H51.2523C51.3723 4.64 51.4743 4.688 51.5583 4.784C51.6423 4.868 51.6843 4.97 51.6843 5.09L51.7023 13.766C51.7023 15.098 51.3303 16.13 50.5863 16.862C49.8423 17.594 48.7263 17.96 47.2383 17.96ZM47.1483 12.038C47.8323 12.038 48.3423 11.822 48.6783 11.39C49.0263 10.958 49.2183 10.43 49.2543 9.806C49.2663 9.71 49.2723 9.512 49.2723 9.212C49.2723 8.924 49.2663 8.732 49.2543 8.636C49.2183 8 49.0263 7.466 48.6783 7.034C48.3423 6.602 47.8323 6.386 47.1483 6.386C45.8523 6.386 45.1683 7.184 45.0963 8.78L45.0783 9.212C45.0783 10.064 45.2283 10.748 45.5283 11.264C45.8403 11.78 46.3803 12.038 47.1483 12.038ZM54.5321 14C54.4121 14 54.3101 13.958 54.2261 13.874C54.1421 13.79 54.1001 13.688 54.1001 13.568V5.072C54.1001 4.952 54.1421 4.85 54.2261 4.766C54.3101 4.682 54.4121 4.64 54.5321 4.64H56.0081C56.1281 4.64 56.2301 4.682 56.3141 4.766C56.3981 4.85 56.4401 4.952 56.4401 5.072V5.81C57.1481 4.91 58.1501 4.46 59.4461 4.46C60.5501 4.46 61.4261 4.826 62.0741 5.558C62.7221 6.278 63.0461 7.262 63.0461 8.51V13.568C63.0461 13.688 63.0041 13.79 62.9201 13.874C62.8481 13.958 62.7461 14 62.6141 14H61.0301C60.9101 14 60.8081 13.958 60.7241 13.874C60.6401 13.79 60.5981 13.688 60.5981 13.568V8.618C60.5981 7.91 60.4241 7.364 60.0761 6.98C59.7401 6.584 59.2481 6.386 58.6001 6.386C57.9641 6.386 57.4601 6.584 57.0881 6.98C56.7281 7.376 56.5481 7.922 56.5481 8.618V13.568C56.5481 13.688 56.5061 13.79 56.4221 13.874C56.3501 13.958 56.2481 14 56.1161 14H54.5321ZM69.3645 14.18C68.0325 14.18 66.9705 13.796 66.1785 13.028C65.3985 12.248 64.9845 11.156 64.9365 9.752L64.9185 9.302L64.9365 8.852C64.9965 7.484 65.4165 6.41 66.1965 5.63C66.9885 4.85 68.0445 4.46 69.3645 4.46C70.7805 4.46 71.8725 4.892 72.6405 5.756C73.4205 6.62 73.8105 7.772 73.8105 9.212V9.59C73.8105 9.71 73.7685 9.812 73.6845 9.896C73.6005 9.98 73.4925 10.022 73.3605 10.022H67.3845V10.166C67.4085 10.826 67.5885 11.384 67.9245 11.84C68.2725 12.284 68.7465 12.506 69.3465 12.506C70.0545 12.506 70.6245 12.23 71.0565 11.678C71.1645 11.546 71.2485 11.462 71.3085 11.426C71.3805 11.39 71.4825 11.372 71.6145 11.372H73.1625C73.2705 11.372 73.3605 11.408 73.4325 11.48C73.5165 11.54 73.5585 11.618 73.5585 11.714C73.5585 12.002 73.3845 12.344 73.0365 12.74C72.7005 13.124 72.2145 13.46 71.5785 13.748C70.9425 14.036 70.2045 14.18 69.3645 14.18ZM71.3625 8.51V8.456C71.3625 7.748 71.1825 7.178 70.8225 6.746C70.4745 6.314 69.9885 6.098 69.3645 6.098C68.7405 6.098 68.2545 6.314 67.9065 6.746C67.5585 7.178 67.3845 7.748 67.3845 8.456V8.51H71.3625ZM75.65 14C75.53 14 75.428 13.958 75.344 13.874C75.26 13.79 75.218 13.688 75.218 13.568V12.542C75.218 12.374 75.302 12.182 75.47 11.966L80.078 6.512H75.794C75.674 6.512 75.572 6.47 75.488 6.386C75.404 6.302 75.362 6.2 75.362 6.08V5.072C75.362 4.952 75.404 4.85 75.488 4.766C75.572 4.682 75.674 4.64 75.794 4.64H82.616C82.748 4.64 82.85 4.682 82.922 4.766C83.006 4.838 83.048 4.94 83.048 5.072V6.17C83.048 6.338 82.964 6.518 82.796 6.71L78.296 12.128H82.994C83.126 12.128 83.228 12.17 83.3 12.254C83.384 12.326 83.426 12.428 83.426 12.56V13.568C83.426 13.688 83.384 13.79 83.3 13.874C83.228 13.958 83.126 14 82.994 14H75.65ZM89.7938 14C89.6738 14 89.5718 13.958 89.4878 13.874C89.4038 13.79 89.3618 13.688 89.3618 13.568V5.072C89.3618 4.952 89.4038 4.85 89.4878 4.766C89.5718 4.682 89.6738 4.64 89.7938 4.64H91.2698C91.3898 4.64 91.4918 4.682 91.5758 4.766C91.6598 4.85 91.7018 4.952 91.7018 5.072V5.81C92.4098 4.91 93.4118 4.46 94.7078 4.46C95.8118 4.46 96.6878 4.826 97.3358 5.558C97.9838 6.278 98.3078 7.262 98.3078 8.51V13.568C98.3078 13.688 98.2658 13.79 98.1818 13.874C98.1098 13.958 98.0078 14 97.8758 14H96.2918C96.1718 14 96.0698 13.958 95.9858 13.874C95.9018 13.79 95.8598 13.688 95.8598 13.568V8.618C95.8598 7.91 95.6858 7.364 95.3378 6.98C95.0018 6.584 94.5098 6.386 93.8618 6.386C93.2258 6.386 92.7218 6.584 92.3498 6.98C91.9898 7.376 91.8098 7.922 91.8098 8.618V13.568C91.8098 13.688 91.7678 13.79 91.6838 13.874C91.6118 13.958 91.5098 14 91.3778 14H89.7938ZM104.734 14.18C103.33 14.18 102.244 13.82 101.476 13.1C100.708 12.368 100.294 11.372 100.234 10.112L100.216 9.32L100.234 8.528C100.294 7.28 100.714 6.29 101.494 5.558C102.274 4.826 103.354 4.46 104.734 4.46C106.114 4.46 107.194 4.826 107.974 5.558C108.754 6.29 109.174 7.28 109.234 8.528C109.246 8.672 109.252 8.936 109.252 9.32C109.252 9.704 109.246 9.968 109.234 10.112C109.174 11.372 108.76 12.368 107.992 13.1C107.224 13.82 106.138 14.18 104.734 14.18ZM104.734 12.398C105.37 12.398 105.862 12.2 106.21 11.804C106.558 11.396 106.75 10.802 106.786 10.022C106.798 9.902 106.804 9.668 106.804 9.32C106.804 8.972 106.798 8.738 106.786 8.618C106.75 7.838 106.558 7.25 106.21 6.854C105.862 6.446 105.37 6.242 104.734 6.242C104.098 6.242 103.606 6.446 103.258 6.854C102.91 7.25 102.718 7.838 102.682 8.618L102.664 9.32L102.682 10.022C102.718 10.802 102.91 11.396 103.258 11.804C103.606 12.2 104.098 12.398 104.734 12.398ZM114.721 14.18C113.617 14.18 112.747 13.82 112.111 13.1C111.475 12.368 111.157 11.378 111.157 10.13V5.072C111.157 4.952 111.199 4.85 111.283 4.766C111.367 4.682 111.469 4.64 111.589 4.64H113.173C113.305 4.64 113.407 4.682 113.479 4.766C113.563 4.838 113.605 4.94 113.605 5.072V10.022C113.605 11.51 114.259 12.254 115.567 12.254C116.191 12.254 116.683 12.056 117.043 11.66C117.415 11.264 117.601 10.718 117.601 10.022V5.072C117.601 4.952 117.643 4.85 117.727 4.766C117.811 4.682 117.913 4.64 118.033 4.64H119.617C119.749 4.64 119.851 4.682 119.923 4.766C120.007 4.838 120.049 4.94 120.049 5.072V13.568C120.049 13.688 120.007 13.79 119.923 13.874C119.851 13.958 119.749 14 119.617 14H118.159C118.039 14 117.937 13.958 117.853 13.874C117.769 13.79 117.727 13.688 117.727 13.568V12.83C117.055 13.73 116.053 14.18 114.721 14.18ZM125.972 14.18C125.072 14.18 124.316 14.048 123.704 13.784C123.092 13.508 122.636 13.19 122.336 12.83C122.048 12.458 121.904 12.14 121.904 11.876C121.904 11.756 121.946 11.66 122.03 11.588C122.114 11.516 122.21 11.48 122.318 11.48H123.74C123.848 11.48 123.938 11.522 124.01 11.606C124.058 11.642 124.184 11.75 124.388 11.93C124.592 12.122 124.832 12.272 125.108 12.38C125.384 12.488 125.69 12.542 126.026 12.542C126.506 12.542 126.902 12.446 127.214 12.254C127.526 12.062 127.682 11.798 127.682 11.462C127.682 11.21 127.61 11.006 127.466 10.85C127.334 10.694 127.088 10.556 126.728 10.436C126.368 10.304 125.834 10.166 125.126 10.022C124.106 9.806 123.35 9.476 122.858 9.032C122.378 8.588 122.138 8 122.138 7.268C122.138 6.788 122.282 6.338 122.57 5.918C122.858 5.486 123.284 5.138 123.848 4.874C124.424 4.598 125.108 4.46 125.9 4.46C126.704 4.46 127.4 4.592 127.988 4.856C128.576 5.108 129.02 5.414 129.32 5.774C129.632 6.122 129.788 6.434 129.788 6.71C129.788 6.818 129.746 6.914 129.662 6.998C129.59 7.07 129.5 7.106 129.392 7.106H128.06C127.964 7.106 127.862 7.064 127.754 6.98C127.67 6.92 127.538 6.806 127.358 6.638C127.178 6.47 126.968 6.338 126.728 6.242C126.488 6.146 126.206 6.098 125.882 6.098C125.438 6.098 125.09 6.194 124.838 6.386C124.598 6.578 124.478 6.83 124.478 7.142C124.478 7.37 124.538 7.556 124.658 7.7C124.778 7.844 125.012 7.982 125.36 8.114C125.708 8.246 126.23 8.378 126.926 8.51C128.078 8.738 128.9 9.092 129.392 9.572C129.896 10.052 130.148 10.64 130.148 11.336C130.148 12.176 129.782 12.86 129.05 13.388C128.318 13.916 127.292 14.18 125.972 14.18Z" fill="#4EB798"/>
</svg>
