<svg width="126" height="17" viewBox="0 0 126 17" fill="none" xmlns="http://www.w3.org/2000/svg">
<path d="M0.98 13C0.86 13 0.758 12.964 0.674 12.892C0.602 12.808 0.566 12.706 0.566 12.586V0.831999C0.566 0.699999 0.602 0.597999 0.674 0.526C0.758 0.441999 0.86 0.399999 0.98 0.399999H5.372C6.752 0.399999 7.832 0.723999 8.612 1.372C9.392 2.02 9.782 2.956 9.782 4.18C9.782 5.092 9.554 5.842 9.098 6.43C8.654 7.018 8.024 7.426 7.208 7.654L9.98 12.442C10.016 12.514 10.034 12.58 10.034 12.64C10.034 12.736 9.992 12.82 9.908 12.892C9.836 12.964 9.752 13 9.656 13H8.792C8.612 13 8.468 12.958 8.36 12.874C8.264 12.79 8.174 12.67 8.09 12.514L5.48 7.942H2.33V12.586C2.33 12.706 2.288 12.808 2.204 12.892C2.12 12.964 2.018 13 1.898 13H0.98ZM5.3 6.412C7.088 6.412 7.982 5.662 7.982 4.162C7.982 2.662 7.088 1.912 5.3 1.912H2.33V6.412H5.3ZM15.7655 13.18C14.5295 13.18 13.5395 12.802 12.7955 12.046C12.0635 11.278 11.6615 10.234 11.5895 8.914L11.5715 8.302L11.5895 7.708C11.6735 6.412 12.0815 5.38 12.8135 4.612C13.5575 3.844 14.5355 3.46 15.7475 3.46C17.0795 3.46 18.1115 3.886 18.8435 4.738C19.5755 5.578 19.9415 6.718 19.9415 8.158V8.464C19.9415 8.584 19.8995 8.686 19.8155 8.77C19.7435 8.842 19.6475 8.878 19.5275 8.878H13.2995V9.04C13.3355 9.82 13.5695 10.486 14.0015 11.038C14.4455 11.578 15.0275 11.848 15.7475 11.848C16.2995 11.848 16.7495 11.74 17.0975 11.524C17.4575 11.296 17.7215 11.062 17.8895 10.822C17.9975 10.678 18.0755 10.594 18.1235 10.57C18.1835 10.534 18.2855 10.516 18.4295 10.516H19.3115C19.4195 10.516 19.5095 10.546 19.5815 10.606C19.6535 10.666 19.6895 10.75 19.6895 10.858C19.6895 11.122 19.5215 11.44 19.1855 11.812C18.8615 12.184 18.3995 12.508 17.7995 12.784C17.2115 13.048 16.5335 13.18 15.7655 13.18ZM18.2315 7.636V7.582C18.2315 6.754 18.0035 6.082 17.5475 5.566C17.1035 5.038 16.5035 4.774 15.7475 4.774C14.9915 4.774 14.3915 5.038 13.9475 5.566C13.5155 6.082 13.2995 6.754 13.2995 7.582V7.636H18.2315ZM22.5437 1.894C22.4237 1.894 22.3217 1.858 22.2377 1.786C22.1657 1.702 22.1297 1.6 22.1297 1.48V0.508C22.1297 0.387999 22.1657 0.285999 22.2377 0.202C22.3217 0.117999 22.4237 0.075999 22.5437 0.075999H23.6957C23.8157 0.075999 23.9177 0.117999 24.0017 0.202C24.0857 0.285999 24.1277 0.387999 24.1277 0.508V1.48C24.1277 1.6 24.0857 1.702 24.0017 1.786C23.9177 1.858 23.8157 1.894 23.6957 1.894H22.5437ZM20.5637 16.42C20.4437 16.42 20.3477 16.378 20.2757 16.294C20.1917 16.222 20.1497 16.126 20.1497 16.006V15.394C20.1497 15.274 20.1917 15.172 20.2757 15.088C20.3477 15.016 20.4437 14.98 20.5637 14.98H20.8157C21.4037 14.98 21.7937 14.83 21.9857 14.53C22.1777 14.23 22.2737 13.786 22.2737 13.198V4.054C22.2737 3.934 22.3097 3.838 22.3817 3.766C22.4657 3.682 22.5677 3.64 22.6877 3.64H23.5697C23.6897 3.64 23.7857 3.682 23.8577 3.766C23.9417 3.838 23.9837 3.934 23.9837 4.054V13.216C23.9837 15.352 22.9577 16.42 20.9057 16.42H20.5637ZM30.498 13.18C29.178 13.18 28.152 12.808 27.42 12.064C26.7 11.32 26.316 10.33 26.268 9.094L26.25 8.32L26.268 7.546C26.316 6.322 26.706 5.338 27.438 4.594C28.17 3.838 29.19 3.46 30.498 3.46C31.806 3.46 32.826 3.838 33.558 4.594C34.29 5.338 34.68 6.322 34.728 7.546C34.74 7.678 34.746 7.936 34.746 8.32C34.746 8.704 34.74 8.962 34.728 9.094C34.68 10.33 34.29 11.32 33.558 12.064C32.838 12.808 31.818 13.18 30.498 13.18ZM30.498 11.794C31.254 11.794 31.848 11.554 32.28 11.074C32.724 10.594 32.964 9.904 33 9.004C33.012 8.884 33.018 8.656 33.018 8.32C33.018 7.984 33.012 7.756 33 7.636C32.964 6.736 32.724 6.046 32.28 5.566C31.848 5.086 31.254 4.846 30.498 4.846C29.742 4.846 29.142 5.086 28.698 5.566C28.254 6.046 28.02 6.736 27.996 7.636L27.978 8.32L27.996 9.004C28.02 9.904 28.254 10.594 28.698 11.074C29.142 11.554 29.742 11.794 30.498 11.794ZM37.27 1.894C37.15 1.894 37.048 1.858 36.964 1.786C36.892 1.702 36.856 1.6 36.856 1.48V0.508C36.856 0.387999 36.892 0.285999 36.964 0.202C37.048 0.117999 37.15 0.075999 37.27 0.075999H38.404C38.524 0.075999 38.626 0.117999 38.71 0.202C38.794 0.285999 38.836 0.387999 38.836 0.508V1.48C38.836 1.6 38.794 1.702 38.71 1.786C38.626 1.858 38.524 1.894 38.404 1.894H37.27ZM37.414 13C37.294 13 37.192 12.964 37.108 12.892C37.036 12.808 37 12.706 37 12.586V4.054C37 3.934 37.036 3.838 37.108 3.766C37.192 3.682 37.294 3.64 37.414 3.64H38.278C38.398 3.64 38.494 3.682 38.566 3.766C38.65 3.838 38.692 3.934 38.692 4.054V12.586C38.692 12.706 38.65 12.808 38.566 12.892C38.494 12.964 38.398 13 38.278 13H37.414ZM45.1933 16.96C44.2093 16.96 43.4173 16.792 42.8173 16.456C42.2173 16.132 41.7913 15.76 41.5393 15.34C41.2873 14.92 41.1493 14.542 41.1253 14.206C41.1133 14.086 41.1493 13.984 41.2333 13.9C41.3293 13.816 41.4313 13.774 41.5393 13.774H42.4033C42.5113 13.774 42.6013 13.798 42.6733 13.846C42.7453 13.906 42.8053 14.008 42.8533 14.152C42.9973 14.536 43.2313 14.866 43.5553 15.142C43.8913 15.43 44.4073 15.574 45.1033 15.574C45.9913 15.574 46.6453 15.382 47.0653 14.998C47.4853 14.626 47.6953 13.96 47.6953 13V11.776C47.3833 12.172 46.9873 12.49 46.5073 12.73C46.0273 12.958 45.4573 13.072 44.7973 13.072C43.5253 13.072 42.5713 12.67 41.9353 11.866C41.3113 11.05 40.9813 10.018 40.9453 8.77L40.9273 8.266L40.9453 7.78C40.9813 6.544 41.3173 5.518 41.9533 4.702C42.5893 3.874 43.5373 3.46 44.7973 3.46C46.0573 3.46 47.0413 3.922 47.7493 4.846V4.072C47.7493 3.952 47.7853 3.85 47.8573 3.766C47.9413 3.682 48.0433 3.64 48.1633 3.64H48.9913C49.1113 3.64 49.2133 3.682 49.2973 3.766C49.3813 3.85 49.4233 3.952 49.4233 4.072V12.802C49.4233 15.574 48.0133 16.96 45.1933 16.96ZM45.1573 11.632C45.9733 11.632 46.5913 11.362 47.0113 10.822C47.4313 10.282 47.6593 9.64 47.6953 8.896C47.7073 8.788 47.7133 8.578 47.7133 8.266C47.7133 7.966 47.7073 7.762 47.6953 7.654C47.6593 6.91 47.4313 6.268 47.0113 5.728C46.6033 5.188 45.9853 4.918 45.1573 4.918C44.3053 4.918 43.6873 5.182 43.3033 5.71C42.9193 6.238 42.7093 6.934 42.6733 7.798L42.6553 8.266L42.6733 8.752C42.7093 9.604 42.9193 10.3 43.3033 10.84C43.6873 11.368 44.3053 11.632 45.1573 11.632ZM52.5136 13C52.3936 13 52.2916 12.964 52.2076 12.892C52.1356 12.808 52.0996 12.706 52.0996 12.586V4.054C52.0996 3.934 52.1356 3.838 52.2076 3.766C52.2916 3.682 52.3936 3.64 52.5136 3.64H53.3596C53.4796 3.64 53.5756 3.682 53.6476 3.766C53.7316 3.838 53.7736 3.934 53.7736 4.054V4.846C54.1216 4.402 54.5296 4.06 54.9976 3.82C55.4776 3.58 56.0716 3.46 56.7796 3.46C57.9316 3.46 58.8256 3.832 59.4616 4.576C60.1096 5.308 60.4336 6.286 60.4336 7.51V12.586C60.4336 12.706 60.3916 12.808 60.3076 12.892C60.2356 12.964 60.1396 13 60.0196 13H59.1196C58.9996 13 58.8976 12.964 58.8136 12.892C58.7416 12.808 58.7056 12.706 58.7056 12.586V7.6C58.7056 6.748 58.4956 6.088 58.0756 5.62C57.6676 5.152 57.0736 4.918 56.2936 4.918C55.5376 4.918 54.9376 5.158 54.4936 5.638C54.0496 6.106 53.8276 6.76 53.8276 7.6V12.586C53.8276 12.706 53.7856 12.808 53.7016 12.892C53.6296 12.964 53.5336 13 53.4136 13H52.5136ZM66.7596 13.18C65.5236 13.18 64.5336 12.802 63.7896 12.046C63.0576 11.278 62.6556 10.234 62.5836 8.914L62.5656 8.302L62.5836 7.708C62.6676 6.412 63.0756 5.38 63.8076 4.612C64.5516 3.844 65.5296 3.46 66.7416 3.46C68.0736 3.46 69.1056 3.886 69.8376 4.738C70.5696 5.578 70.9356 6.718 70.9356 8.158V8.464C70.9356 8.584 70.8936 8.686 70.8096 8.77C70.7376 8.842 70.6416 8.878 70.5216 8.878H64.2936V9.04C64.3296 9.82 64.5636 10.486 64.9956 11.038C65.4396 11.578 66.0216 11.848 66.7416 11.848C67.2936 11.848 67.7436 11.74 68.0916 11.524C68.4516 11.296 68.7156 11.062 68.8836 10.822C68.9916 10.678 69.0696 10.594 69.1176 10.57C69.1776 10.534 69.2796 10.516 69.4236 10.516H70.3056C70.4136 10.516 70.5036 10.546 70.5756 10.606C70.6476 10.666 70.6836 10.75 70.6836 10.858C70.6836 11.122 70.5156 11.44 70.1796 11.812C69.8556 12.184 69.3936 12.508 68.7936 12.784C68.2056 13.048 67.5276 13.18 66.7596 13.18ZM69.2256 7.636V7.582C69.2256 6.754 68.9976 6.082 68.5416 5.566C68.0976 5.038 67.4976 4.774 66.7416 4.774C65.9856 4.774 65.3856 5.038 64.9416 5.566C64.5096 6.082 64.2936 6.754 64.2936 7.582V7.636H69.2256ZM72.8903 13C72.7703 13 72.6683 12.964 72.5843 12.892C72.5123 12.808 72.4763 12.706 72.4763 12.586V11.956C72.4763 11.86 72.5003 11.764 72.5483 11.668C72.6083 11.56 72.6683 11.464 72.7283 11.38L77.6963 5.062H73.0523C72.9323 5.062 72.8303 5.026 72.7463 4.954C72.6743 4.87 72.6383 4.768 72.6383 4.648V4.054C72.6383 3.934 72.6743 3.838 72.7463 3.766C72.8303 3.682 72.9323 3.64 73.0523 3.64H79.4603C79.5803 3.64 79.6763 3.682 79.7483 3.766C79.8323 3.838 79.8743 3.934 79.8743 4.054V4.72C79.8743 4.816 79.8443 4.912 79.7843 5.008C79.7363 5.104 79.6823 5.194 79.6223 5.278L74.7083 11.578H79.8203C79.9523 11.578 80.0543 11.614 80.1263 11.686C80.1983 11.758 80.2343 11.86 80.2343 11.992V12.586C80.2343 12.706 80.1923 12.808 80.1083 12.892C80.0363 12.964 79.9403 13 79.8203 13H72.8903ZM87.0546 13C86.9346 13 86.8326 12.964 86.7486 12.892C86.6766 12.808 86.6406 12.706 86.6406 12.586V4.054C86.6406 3.934 86.6766 3.838 86.7486 3.766C86.8326 3.682 86.9346 3.64 87.0546 3.64H87.9006C88.0206 3.64 88.1166 3.682 88.1886 3.766C88.2726 3.838 88.3146 3.934 88.3146 4.054V4.846C88.6626 4.402 89.0706 4.06 89.5386 3.82C90.0186 3.58 90.6126 3.46 91.3206 3.46C92.4726 3.46 93.3666 3.832 94.0026 4.576C94.6506 5.308 94.9746 6.286 94.9746 7.51V12.586C94.9746 12.706 94.9326 12.808 94.8486 12.892C94.7766 12.964 94.6806 13 94.5606 13H93.6606C93.5406 13 93.4386 12.964 93.3546 12.892C93.2826 12.808 93.2466 12.706 93.2466 12.586V7.6C93.2466 6.748 93.0366 6.088 92.6166 5.62C92.2086 5.152 91.6146 4.918 90.8346 4.918C90.0786 4.918 89.4786 5.158 89.0346 5.638C88.5906 6.106 88.3686 6.76 88.3686 7.6V12.586C88.3686 12.706 88.3266 12.808 88.2426 12.892C88.1706 12.964 88.0746 13 87.9546 13H87.0546ZM101.391 13.18C100.071 13.18 99.0446 12.808 98.3126 12.064C97.5926 11.32 97.2086 10.33 97.1606 9.094L97.1426 8.32L97.1606 7.546C97.2086 6.322 97.5986 5.338 98.3306 4.594C99.0626 3.838 100.083 3.46 101.391 3.46C102.699 3.46 103.719 3.838 104.451 4.594C105.183 5.338 105.573 6.322 105.621 7.546C105.633 7.678 105.639 7.936 105.639 8.32C105.639 8.704 105.633 8.962 105.621 9.094C105.573 10.33 105.183 11.32 104.451 12.064C103.731 12.808 102.711 13.18 101.391 13.18ZM101.391 11.794C102.147 11.794 102.741 11.554 103.173 11.074C103.617 10.594 103.857 9.904 103.893 9.004C103.905 8.884 103.911 8.656 103.911 8.32C103.911 7.984 103.905 7.756 103.893 7.636C103.857 6.736 103.617 6.046 103.173 5.566C102.741 5.086 102.147 4.846 101.391 4.846C100.635 4.846 100.035 5.086 99.5906 5.566C99.1466 6.046 98.9126 6.736 98.8886 7.636L98.8706 8.32L98.8886 9.004C98.9126 9.904 99.1466 10.594 99.5906 11.074C100.035 11.554 100.635 11.794 101.391 11.794ZM111.385 13.18C110.245 13.18 109.363 12.814 108.739 12.082C108.115 11.338 107.803 10.354 107.803 9.13V4.054C107.803 3.934 107.839 3.838 107.911 3.766C107.995 3.682 108.097 3.64 108.217 3.64H109.117C109.237 3.64 109.333 3.682 109.405 3.766C109.489 3.838 109.531 3.934 109.531 4.054V9.04C109.531 10.828 110.311 11.722 111.871 11.722C112.627 11.722 113.227 11.488 113.671 11.02C114.115 10.54 114.337 9.88 114.337 9.04V4.054C114.337 3.934 114.373 3.838 114.445 3.766C114.529 3.682 114.631 3.64 114.751 3.64H115.651C115.771 3.64 115.867 3.682 115.939 3.766C116.011 3.838 116.047 3.934 116.047 4.054V12.586C116.047 12.706 116.011 12.808 115.939 12.892C115.867 12.964 115.771 13 115.651 13H114.805C114.685 13 114.583 12.964 114.499 12.892C114.427 12.808 114.391 12.706 114.391 12.586V11.794C114.055 12.25 113.647 12.598 113.167 12.838C112.687 13.066 112.093 13.18 111.385 13.18ZM121.961 13.18C121.121 13.18 120.413 13.048 119.837 12.784C119.273 12.508 118.847 12.196 118.559 11.848C118.283 11.5 118.145 11.212 118.145 10.984C118.145 10.864 118.187 10.774 118.271 10.714C118.367 10.642 118.463 10.606 118.559 10.606H119.369C119.489 10.606 119.597 10.666 119.693 10.786C119.981 11.122 120.293 11.386 120.629 11.578C120.965 11.77 121.415 11.866 121.979 11.866C122.603 11.866 123.107 11.746 123.491 11.506C123.887 11.254 124.085 10.912 124.085 10.48C124.085 10.192 124.001 9.958 123.833 9.778C123.677 9.586 123.401 9.424 123.005 9.292C122.621 9.148 122.045 8.992 121.277 8.824C120.233 8.596 119.489 8.266 119.045 7.834C118.613 7.402 118.397 6.844 118.397 6.16C118.397 5.704 118.529 5.272 118.793 4.864C119.069 4.444 119.465 4.108 119.981 3.856C120.509 3.592 121.139 3.46 121.871 3.46C122.639 3.46 123.293 3.586 123.833 3.838C124.373 4.09 124.775 4.39 125.039 4.738C125.315 5.074 125.453 5.356 125.453 5.584C125.453 5.692 125.411 5.782 125.327 5.854C125.255 5.926 125.165 5.962 125.057 5.962H124.301C124.157 5.962 124.037 5.902 123.941 5.782C123.749 5.554 123.581 5.38 123.437 5.26C123.305 5.128 123.107 5.014 122.843 4.918C122.591 4.822 122.267 4.774 121.871 4.774C121.295 4.774 120.851 4.9 120.539 5.152C120.227 5.392 120.071 5.71 120.071 6.106C120.071 6.358 120.137 6.574 120.269 6.754C120.401 6.922 120.653 7.078 121.025 7.222C121.409 7.366 121.961 7.516 122.681 7.672C123.821 7.912 124.625 8.26 125.093 8.716C125.573 9.16 125.813 9.73 125.813 10.426C125.813 10.942 125.663 11.41 125.363 11.83C125.063 12.25 124.619 12.58 124.031 12.82C123.455 13.06 122.765 13.18 121.961 13.18Z" fill="#C4C4C4"/>
</svg>
