<svg width="133" height="40" viewBox="0 0 133 40" fill="none" xmlns="http://www.w3.org/2000/svg">
<path d="M1.464 40C1.16533 40 0.904 39.888 0.68 39.664C0.456 39.44 0.344 39.1787 0.344 38.88L0.456 38.264L14.624 1.92C14.9227 1.17333 15.464 0.799997 16.248 0.799997H18.152C18.936 0.799997 19.4773 1.17333 19.776 1.92L33.944 38.264L34.056 38.88C34.056 39.1787 33.944 39.44 33.72 39.664C33.496 39.888 33.2347 40 32.936 40H31.816C31.48 40 31.2 39.9067 30.976 39.72C30.7893 39.5333 30.6587 39.3467 30.584 39.16L27.112 30.2H7.288L3.816 39.16C3.74133 39.3467 3.592 39.5333 3.368 39.72C3.18133 39.9067 2.92 40 2.584 40H1.464ZM8.632 26.84H25.768L17.2 4.776L8.632 26.84ZM41.9179 40C41.5445 40 41.2459 39.888 41.0219 39.664C40.7979 39.44 40.6859 39.1413 40.6859 38.768V2.088C40.6859 1.71466 40.7979 1.416 41.0219 1.192C41.2459 0.930665 41.5445 0.799997 41.9179 0.799997H56.5339C60.2299 0.799997 63.0299 1.752 64.9339 3.656C66.8379 5.56 67.7899 7.94933 67.7899 10.824C67.7899 13.0267 67.3045 14.8373 66.3339 16.256C65.3632 17.6747 64.2059 18.7013 62.8619 19.336C64.4672 20.1573 65.8112 21.408 66.8939 23.088C68.0139 24.768 68.5739 26.7093 68.5739 28.912C68.5739 30.8533 68.1072 32.6827 67.1739 34.4C66.2779 36.08 64.9525 37.4427 63.1979 38.488C61.4432 39.496 59.3525 40 56.9259 40H41.9179ZM55.8059 17.824C58.5685 17.824 60.6592 17.2267 62.0779 16.032C63.5339 14.8 64.2619 13.064 64.2619 10.824C64.2619 8.62133 63.5339 6.96 62.0779 5.84C60.6592 4.72 58.5685 4.16 55.8059 4.16H44.2139V17.824H55.8059ZM56.3659 36.64C59.0912 36.64 61.2192 35.9307 62.7499 34.512C64.2805 33.056 65.0459 31.1893 65.0459 28.912C65.0459 26.5973 64.2805 24.7307 62.7499 23.312C61.2192 21.8933 59.0912 21.184 56.3659 21.184H44.2139V36.64H56.3659ZM78.5038 40C78.1305 40 77.8318 39.888 77.6078 39.664C77.3838 39.44 77.2718 39.1413 77.2718 38.768V2.032C77.2718 1.65867 77.3838 1.36 77.6078 1.136C77.8318 0.911998 78.1305 0.799997 78.5038 0.799997H79.5678C79.9411 0.799997 80.2398 0.911998 80.4638 1.136C80.6878 1.36 80.7998 1.65867 80.7998 2.032V36.64H100.12C100.53 36.64 100.848 36.752 101.072 36.976C101.296 37.2 101.408 37.5173 101.408 37.928V38.768C101.408 39.1413 101.277 39.44 101.016 39.664C100.792 39.888 100.493 40 100.12 40H78.5038ZM109.184 40C108.81 40 108.512 39.888 108.288 39.664C108.064 39.44 107.952 39.1413 107.952 38.768V2.088C107.952 1.71466 108.064 1.416 108.288 1.192C108.512 0.930665 108.81 0.799997 109.184 0.799997H131.024C131.434 0.799997 131.752 0.911998 131.976 1.136C132.2 1.36 132.312 1.67733 132.312 2.088V2.928C132.312 3.30133 132.181 3.6 131.92 3.824C131.696 4.048 131.397 4.16 131.024 4.16H111.48V18.44H129.792C130.202 18.44 130.52 18.552 130.744 18.776C130.968 19 131.08 19.3173 131.08 19.728V20.568C131.08 20.9413 130.949 21.24 130.688 21.464C130.464 21.688 130.165 21.8 129.792 21.8H111.48V36.64H131.471C131.882 36.64 132.2 36.752 132.424 36.976C132.648 37.2 132.76 37.5173 132.76 37.928V38.768C132.76 39.1413 132.629 39.44 132.368 39.664C132.144 39.888 131.845 40 131.471 40H109.184Z" fill="url(#paint0_linear)"/>
<defs>
<linearGradient id="paint0_linear" x1="38.1429" y1="54" x2="38.1429" y2="-25.5882" gradientUnits="userSpaceOnUse">
<stop stop-color="#4EB798"/>
<stop offset="1" stop-color="#008DB9"/>
</linearGradient>
</defs>
</svg>
