<svg width="34" height="10" viewBox="0 0 34 10" fill="none" xmlns="http://www.w3.org/2000/svg">
<path d="M0.616 10C0.541333 10 0.476 9.972 0.42 9.916C0.364 9.86 0.336 9.79467 0.336 9.72L0.364 9.566L3.906 0.48C3.98067 0.293333 4.116 0.199999 4.312 0.199999H4.788C4.984 0.199999 5.11933 0.293333 5.194 0.48L8.736 9.566L8.764 9.72C8.764 9.79467 8.736 9.86 8.68 9.916C8.624 9.972 8.55867 10 8.484 10H8.204C8.12 10 8.05 9.97667 7.994 9.93C7.94733 9.88333 7.91467 9.83667 7.896 9.79L7.028 7.55H2.072L1.204 9.79C1.18533 9.83667 1.148 9.88333 1.092 9.93C1.04533 9.97667 0.98 10 0.896 10H0.616ZM6.692 6.71L4.55 1.194L2.408 6.71H6.692ZM10.7295 10C10.6361 10 10.5615 9.972 10.5055 9.916C10.4495 9.86 10.4215 9.78533 10.4215 9.692V0.521999C10.4215 0.428666 10.4495 0.354 10.5055 0.298C10.5615 0.232666 10.6361 0.199999 10.7295 0.199999H14.3835C15.3075 0.199999 16.0075 0.437999 16.4835 0.913999C16.9595 1.39 17.1975 1.98733 17.1975 2.706C17.1975 3.25667 17.0761 3.70933 16.8335 4.064C16.5908 4.41867 16.3015 4.67533 15.9655 4.834C16.3668 5.03933 16.7028 5.352 16.9735 5.772C17.2535 6.192 17.3935 6.67733 17.3935 7.228C17.3935 7.71333 17.2768 8.17067 17.0435 8.6C16.8195 9.02 16.4881 9.36067 16.0495 9.622C15.6108 9.874 15.0881 10 14.4815 10H10.7295ZM14.2015 4.456C14.8921 4.456 15.4148 4.30667 15.7695 4.008C16.1335 3.7 16.3155 3.266 16.3155 2.706C16.3155 2.15533 16.1335 1.74 15.7695 1.46C15.4148 1.18 14.8921 1.04 14.2015 1.04H11.3035V4.456H14.2015ZM14.3415 9.16C15.0228 9.16 15.5548 8.98267 15.9375 8.628C16.3201 8.264 16.5115 7.79733 16.5115 7.228C16.5115 6.64933 16.3201 6.18267 15.9375 5.828C15.5548 5.47333 15.0228 5.296 14.3415 5.296H11.3035V9.16H14.3415ZM19.876 10C19.7826 10 19.708 9.972 19.652 9.916C19.596 9.86 19.568 9.78533 19.568 9.692V0.508C19.568 0.414666 19.596 0.34 19.652 0.284C19.708 0.228 19.7826 0.199999 19.876 0.199999H20.142C20.2353 0.199999 20.31 0.228 20.366 0.284C20.422 0.34 20.45 0.414666 20.45 0.508V9.16H25.28C25.3826 9.16 25.462 9.188 25.518 9.244C25.574 9.3 25.602 9.37933 25.602 9.482V9.692C25.602 9.78533 25.5693 9.86 25.504 9.916C25.448 9.972 25.3733 10 25.28 10H19.876ZM27.5459 10C27.4525 10 27.3779 9.972 27.3219 9.916C27.2659 9.86 27.2379 9.78533 27.2379 9.692V0.521999C27.2379 0.428666 27.2659 0.354 27.3219 0.298C27.3779 0.232666 27.4525 0.199999 27.5459 0.199999H33.0059C33.1085 0.199999 33.1879 0.228 33.2439 0.284C33.2999 0.34 33.3279 0.419333 33.3279 0.521999V0.731999C33.3279 0.825333 33.2952 0.9 33.2299 0.956C33.1739 1.012 33.0992 1.04 33.0059 1.04H28.1199V4.61H32.6979C32.8005 4.61 32.8799 4.638 32.9359 4.694C32.9919 4.75 33.0199 4.82933 33.0199 4.932V5.142C33.0199 5.23533 32.9872 5.31 32.9219 5.366C32.8659 5.422 32.7912 5.45 32.6979 5.45H28.1199V9.16H33.1179C33.2205 9.16 33.2999 9.188 33.3559 9.244C33.4119 9.3 33.4399 9.37933 33.4399 9.482V9.692C33.4399 9.78533 33.4072 9.86 33.3419 9.916C33.2859 9.972 33.2112 10 33.1179 10H27.5459Z" fill="url(#paint0_linear)"/>
<defs>
<linearGradient id="paint0_linear" x1="10" y1="14" x2="10" y2="-6.5" gradientUnits="userSpaceOnUse">
<stop stop-color="#4EB798"/>
<stop offset="1" stop-color="#008DB9"/>
</linearGradient>
</defs>
</svg>
