<svg width="65" height="33" viewBox="0 0 65 33" fill="none" xmlns="http://www.w3.org/2000/svg">
<g clip-path="url(#clip0)">
<path d="M16.8001 13.2998L25.2001 21.6998C25.6001 22.0998 25.6001 22.7998 25.2001 23.1998L16.8001 31.5998C16.4001 31.9998 15.7001 31.9998 15.3001 31.5998L6.9001 23.1998C6.5001 22.7998 6.5001 22.0998 6.9001 21.6998L15.3001 13.2998C15.7001 12.7998 16.4001 12.7998 16.8001 13.2998Z" stroke="white" stroke-width="0.9425"/>
<path d="M5 12.5002L7.7 15.1002C8.1 15.5002 8.1 16.2002 7.7 16.7002L5 19.3002C4.6 19.7002 3.9 19.7002 3.5 19.3002L0.8 16.7002C0.4 16.3002 0.4 15.6002 0.8 15.1002L3.5 12.5002C3.9 12.1002 4.6 12.1002 5 12.5002Z" stroke="white" stroke-width="0.9425"/>
<path d="M28.3999 12.5002L31.0999 15.1002C31.4999 15.5002 31.4999 16.2002 31.0999 16.7002L28.3999 19.3002C27.9999 19.7002 27.2999 19.7002 26.8999 19.3002L24.1999 16.7002C23.7999 16.3002 23.7999 15.6002 24.1999 15.1002L26.8999 12.5002C27.2999 12.1002 27.8999 12.1002 28.3999 12.5002Z" stroke="white" stroke-width="0.9425"/>
<path d="M21.1001 13.3L17.3001 9.5C16.6001 8.8 15.4001 8.8 14.7001 9.5L11.0001 13.3C10.6001 13.7 9.9001 13.7 9.5001 13.3L6.9001 10.7C6.5001 10.3 6.5001 9.6 6.9001 9.2L15.3001 0.8C15.7001 0.4 16.4001 0.4 16.8001 0.8L25.2001 9.2C25.6001 9.6 25.6001 10.3 25.2001 10.7L22.6001 13.3C22.2001 13.8 21.5001 13.8 21.1001 13.3Z" stroke="white" stroke-width="0.9425"/>
<path d="M31.6999 31.8999C31.5999 31.8999 31.5999 31.8999 31.4999 31.7999C31.3999 31.6999 31.3999 31.6999 31.3999 31.5999V31.3999L34.9999 22.1999C35.0999 21.9999 35.1999 21.8999 35.3999 21.8999H35.8999C36.0999 21.8999 36.1999 21.9999 36.2999 22.1999L39.8999 31.3999V31.5999C39.8999 31.6999 39.8999 31.6999 39.7999 31.7999C39.6999 31.8999 39.6999 31.8999 39.5999 31.8999H39.2999C39.1999 31.8999 39.0999 31.8999 39.0999 31.7999L38.9999 31.6999L38.0999 29.3999H33.0999L32.1999 31.6999L32.0999 31.7999C32.0999 31.7999 31.9999 31.8999 31.8999 31.8999H31.6999ZM33.4999 28.5999H37.7999L35.5999 22.9999L33.4999 28.5999ZM41.8999 31.8999C41.7999 31.8999 41.6999 31.8999 41.6999 31.7999C41.5999 31.6999 41.5999 31.6999 41.5999 31.5999V22.2999C41.5999 22.1999 41.5999 22.0999 41.6999 22.0999C41.7999 21.9999 41.7999 21.9999 41.8999 21.9999H45.5999C46.4999 21.9999 47.1999 22.1999 47.6999 22.6999C48.1999 23.1999 48.3999 23.7999 48.3999 24.4999C48.3999 25.0999 48.2999 25.4999 47.9999 25.8999C47.7999 26.2999 47.4999 26.4999 47.0999 26.6999C47.4999 26.8999 47.8999 27.1999 48.0999 27.6999C48.3999 28.0999 48.4999 28.5999 48.4999 29.1999C48.4999 29.6999 48.3999 30.1999 48.0999 30.5999C47.8999 30.9999 47.4999 31.3999 47.0999 31.6999C46.5999 31.9999 46.0999 32.0999 45.4999 32.0999H41.8999V31.8999ZM45.3999 26.2999C46.0999 26.2999 46.5999 26.0999 46.9999 25.7999C47.3999 25.4999 47.5999 24.9999 47.5999 24.4999C47.5999 23.8999 47.3999 23.4999 46.9999 23.2999C46.5999 22.9999 46.0999 22.8999 45.3999 22.8999H42.4999V26.3999H45.3999V26.2999ZM45.4999 30.9999C46.1999 30.9999 46.6999 30.7999 47.0999 30.4999C47.4999 30.0999 47.6999 29.5999 47.6999 29.0999C47.6999 28.4999 47.4999 27.9999 47.0999 27.6999C46.6999 27.2999 46.1999 27.1999 45.4999 27.1999H42.3999V31.0999L45.4999 30.9999ZM51.0999 31.8999C50.9999 31.8999 50.8999 31.8999 50.8999 31.7999C50.7999 31.6999 50.7999 31.6999 50.7999 31.5999V22.2999C50.7999 22.1999 50.7999 22.0999 50.8999 22.0999C50.9999 21.9999 50.9999 21.9999 51.0999 21.9999H51.3999C51.4999 21.9999 51.5999 21.9999 51.5999 22.0999C51.6999 22.1999 51.6999 22.1999 51.6999 22.2999V30.9999H56.5999C56.6999 30.9999 56.7999 30.9999 56.7999 31.0999C56.8999 31.1999 56.8999 31.1999 56.8999 31.2999V31.4999C56.8999 31.5999 56.8999 31.6999 56.7999 31.6999C56.6999 31.7999 56.6999 31.7999 56.5999 31.7999H51.0999V31.8999ZM58.7999 31.8999C58.6999 31.8999 58.5999 31.8999 58.5999 31.7999C58.4999 31.6999 58.4999 31.6999 58.4999 31.5999V22.2999C58.4999 22.1999 58.4999 22.0999 58.5999 22.0999C58.6999 21.9999 58.6999 21.9999 58.7999 21.9999H64.2999C64.3999 21.9999 64.4999 21.9999 64.4999 22.0999C64.5999 22.1999 64.5999 22.1999 64.5999 22.2999V22.4999C64.5999 22.5999 64.5999 22.6999 64.4999 22.6999C64.3999 22.7999 64.3999 22.7999 64.2999 22.7999H59.3999V26.3999H63.9999C64.0999 26.3999 64.1999 26.3999 64.1999 26.4999C64.1999 26.5999 64.2999 26.5999 64.2999 26.6999V26.8999C64.2999 26.9999 64.2999 27.0999 64.1999 27.0999C64.0999 27.1999 64.0999 27.1999 63.9999 27.1999H59.3999V30.9999H64.3999C64.4999 30.9999 64.5999 30.9999 64.5999 31.0999C64.5999 31.1999 64.6999 31.1999 64.6999 31.2999V31.4999C64.6999 31.5999 64.6999 31.6999 64.5999 31.6999C64.4999 31.7999 64.4999 31.7999 64.3999 31.7999L58.7999 31.8999Z" fill="white"/>
</g>
<defs>
<clipPath id="clip0">
<rect width="64.7" height="32.5" fill="white"/>
</clipPath>
</defs>
</svg>
